# xmcd
#
# Track frame offsets:
#	150
#	15098
#	26498
#	36272
#	49186
#	70148
#	87776
#	99412
#	112578
#	124825
#	141108
#	158771
#	176388
#	191846
#	208074
#	224608
#	243042
#	265845
#
# Disc length: 3732 seconds
#
# Revision: 1
# Processed by: cddbd v1.4PL0 Copyright (c) Steve Scherf et al.
# Submitted via: audiograbber 1.82.01
#
DISCID=eb0e9212
DTITLE=Rev William McCrea - We'll All Be There Volume 1
DYEAR=2003
DGENRE=Gospel
TTITLE0=CAMP MEETING STYLE
TTITLE1=THE HALLELUJAH SIDE
TTITLE2=I'VE NEVER LOVED HIM BETTER
TTITLE3=SOFTLY and tENDERLY
TTITLE4=ABOVE ALL
TTITLE5=HOW DEEP THE FATHERS LOVE
TTITLE6=I AM A NEW CREATION
TTITLE7=UNCLOUDED DAY
TTITLE8=THERE'S WITHIN MY HEART
TTITLE9=THERE BUT FOR THE GRACE OF GOD
TTITLE10=THERE IS A RIVER
TTITLE11=THE HEALER LIVES IN YOU
TTITLE12=WHAT A FRIEND
TTITLE13=I LOOK TO CALVARY
TTITLE14=IN SHADY GREEN PASTURES
TTITLE15=WHEN THE SAVIOUR WIPES THE TEARS
TTITLE16=WHAT A MEETING
TTITLE17=WE'LL ALL BE THERE
EXTD=
EXTT0=
EXTT1=
EXTT2=
EXTT3=
EXTT4=
EXTT5=
EXTT6=
EXTT7=
EXTT8=
EXTT9=
EXTT10=
EXTT11=
EXTT12=
EXTT13=
EXTT14=
EXTT15=
EXTT16=
EXTT17=
PLAYORDER=
